<svg id="Layer_1" data-name="Layer 1" xmlns="http://www.w3.org/2000/svg" viewBox="0 0 300 135"><defs><style>.cls-1{fill:#fff;}</style></defs><title>sweet</title><path class="cls-1" d="M9,87.12c-1.2-2.79.28-4.74,3.17-5.48l4-.93c2.6-.65,4,.46,5.48,2.88,2.14,3.44,6.23,5.77,11.72,5.77,6.33,0,10.51-2.79,10.51-7.07,0-3.26-2.51-5.86-7.44-7.54L28,71.69c-7.72-2.52-17.21-8.28-17.3-18.33C10.7,41.46,21,34,33.76,34c10.14,0,17.3,4.46,20.84,11.9,1.39,2.7.09,4.84-2.7,5.68l-3.72,1c-2.6.74-4.19-.28-5.77-2.51-1.67-2.79-4.55-4.28-8.46-4.28-4.65,0-8.65,2.33-8.65,6.6,0,2.33,1,4.84,6.79,7l8.46,3.07c12.74,4.28,17.49,11,17.67,19.16,0,12.74-10.88,19.53-24.74,19.53C21.3,101.17,12.47,95.77,9,87.12Z"/><path class="cls-1" d="M77.94,96.52l-13.86-39c-1.21-3.16.28-5.21,3.63-5.21h6.14a4.61,4.61,0,0,1,5,3.81L86.4,80.71l7.16-23.25a4.75,4.75,0,0,1,5-3.82H100a4.74,4.74,0,0,1,5,3.82l7.26,23.25,7.44-24.56a4.66,4.66,0,0,1,5-3.81h6.14c3.34,0,4.83,2,3.72,5.21l-14,39a4.84,4.84,0,0,1-5.12,3.62h-4a4.9,4.9,0,0,1-5.11-3.72l-7.07-23-7.16,23a4.85,4.85,0,0,1-5.12,3.72h-4A4.84,4.84,0,0,1,77.94,96.52Z"/><path class="cls-1" d="M138.67,76.43c0-13.49,10.13-25.11,26.22-25.11,13.58,0,24.74,8.18,25.39,23.43.1,2.7-1.76,3.91-4.55,3.91h-33.3c-.18,5.67,5.49,11.16,14.7,11.16a21.27,21.27,0,0,0,10.6-2.88c2.51-1.4,4.56-1.21,6.32.93l1,1.3c1.86,2.23,1.67,4.74-.84,6.6a30.18,30.18,0,0,1-18,5.4C149.08,101.17,138.67,90.1,138.67,76.43Zm38.13-5.77c-1.3-6.41-6.79-8.46-11.72-8.46s-10.7,2.23-12.28,8.46Z"/><path class="cls-1" d="M195.49,76.43c0-13.49,10.14-25.11,26.23-25.11,13.57,0,24.73,8.18,25.39,23.43.09,2.7-1.77,3.91-4.56,3.91h-33.3c-.18,5.67,5.49,11.16,14.7,11.16a21.27,21.27,0,0,0,10.6-2.88c2.51-1.4,4.56-1.21,6.32.93l1,1.3c1.86,2.23,1.67,4.74-.84,6.6a30.16,30.16,0,0,1-18,5.4C205.91,101.17,195.49,90.1,195.49,76.43Zm38.13-5.77c-1.3-6.41-6.79-8.46-11.72-8.46s-10.69,2.23-12.27,8.46Z"/><path class="cls-1" d="M257.8,84.24V63h-4.74a2.18,2.18,0,0,1-2.42-2.33v-6a2.18,2.18,0,0,1,2.42-2.33h5.86l1.58-9.67a3.39,3.39,0,0,1,3.62-3h4.56A3,3,0,0,1,271.94,43v9.39h10.78a2.11,2.11,0,0,1,2.33,2.33v6A2.11,2.11,0,0,1,282.72,63H271.94V84.71c0,3.53,1.76,4.93,3.9,4.93,2.42,0,4-1.86,4-4.38a11.63,11.63,0,0,0-.09-1.67c-.19-1.67.37-2.51,1.95-2.51h5.67A2.41,2.41,0,0,1,290,82.94a16.49,16.49,0,0,1,.56,3.63c0,10.32-7.35,14.6-16,14.6C266.45,101.17,257.8,97.45,257.8,84.24Z"/></svg>